<?xml version="1.0"?>
<svg xmlns="http://www.w3.org/2000/svg" height="512px" viewBox="-42 -33 1058 1058.7528" width="512px"><path d="m187.617188 231.882812c0 5.125 7.480468 10.859376 17.476562 10.859376h559.46875c9.992188 0 17.472656-5.734376 17.472656-10.859376v-107.332031l-120.894531 88.203125c-21.871094 15.402344-51.410156 13.964844-71.675781-3.488281l-104.640625-95.4375-104.699219 95.488281c-20.269531 17.46875-49.816406 18.914063-71.683594 3.496094l-120.824218-88.261719zm0 0" fill="#aaa9b4"/><path d="m326.496094 463.765625 116.121094-116.125h-253.359376zm0 0" fill="#aaa9b4"/><path d="m484.773438 354.945312-115.089844 115.078126h229.023437zm0 0" fill="#aaa9b4"/><path d="m688.34375 470.023438h283.589844c-1.308594-2.28125-3.09375-4.261719-5.246094-5.78125l-146.660156-105.648438zm0 0" fill="#aaa9b4"/><path d="m778.835938 347.640625h-252.101563l114.929687 116.074219zm0 0" fill="#aaa9b4"/><path d="m512.777344 990.5625 444.261718-485.574219h-303.296874zm0 0" fill="#aaa9b4"/><path d="m350.769531 504.988281 133.285157 459.105469 133.269531-459.105469zm0 0" fill="#aaa9b4"/><path d="m12.609375 504.988281 441.988281 483.09375-140.242187-483.09375zm0 0" fill="#aaa9b4"/><path d="m148.769531 359.183594-145.828125 105.058594c-2.152344 1.519531-3.9375 3.5-5.25 5.78125h282.058594zm0 0" fill="#aaa9b4"/><path d="m222.582031 50.433594c0 28.964844-23.484375 52.445312-52.453125 52.445312s-52.445312-23.480468-52.445312-52.445312 23.476562-52.453125 52.445312-52.453125 52.453125 23.488281 52.453125 52.453125zm0 0" fill="#aaa9b4"/><path d="m537.273438 50.433594c0 28.964844-23.484376 52.445312-52.449219 52.445312-28.972657 0-52.445313-23.480468-52.445313-52.445312s23.472656-52.453125 52.445313-52.453125c28.964843 0 52.449219 23.488281 52.449219 52.453125zm0 0" fill="#aaa9b4"/><path d="m851.964844 50.433594c0 28.964844-23.480469 52.445312-52.441406 52.445312-28.96875 0-52.453126-23.480468-52.453126-52.445312s23.484376-52.453125 52.453126-52.453125c28.960937 0 52.441406 23.488281 52.441406 52.453125zm0 0" fill="#aaa9b4"/></svg>
