<?xml version="1.0" encoding="UTF-8"?>
<svg width="40px" height="26px" viewBox="0 0 40 26" version="1.1" xmlns="http://www.w3.org/2000/svg" xmlns:xlink="http://www.w3.org/1999/xlink">
    <!-- Generator: sketchtool 48.2 (47327) - http://www.bohemiancoding.com/sketch -->
    <title>7B9CF4ED-3C4C-4BC1-AB12-5E45C8171527</title>
    <desc>Created with sketchtool.</desc>
    <defs>
        <polygon id="path-1" points="0.0003 0 40 0 40 26 0.0003 26"></polygon>
        <polygon id="path-3" points="0 0 40 0 40 25.9998 0 25.9998"></polygon>
    </defs>
    <g id="Mobile-Menu-EN" stroke="none" stroke-width="1" fill="none" fill-rule="evenodd" transform="translate(-295.000000, -144.000000)">
        <g id="Page-1" transform="translate(295.000000, 144.000000)">
            <g id="Group-3" transform="translate(0.000000, 0.000100)">
                <mask id="mask-2" fill="white">
                    <use xlink:href="#path-1"></use>
                </mask>
                <g id="Clip-2"></g>
                <path d="M37.0283,0 L2.9723,0 C1.3303,0 0.0003,1.331 0.0003,2.972 L0.0003,23.028 C0.0003,24.669 1.3303,26 2.9723,26 L37.0283,26 C38.6693,26 40.0003,24.669 40.0003,23.028 L40.0003,2.972 C40.0003,1.331 38.6693,0 37.0283,0" id="Fill-1" fill="#41479B" mask="url(#mask-2)"></path>
            </g>
            <g id="Group-6" transform="translate(0.000000, 0.000100)">
                <mask id="mask-4" fill="white">
                    <use xlink:href="#path-3"></use>
                </mask>
                <g id="Clip-5"></g>
                <path d="M39.96,2.5898 C39.731,1.1208 38.54,-0.0002 37.105,-0.0002 L36.351,-0.0002 L24,8.6698 L24,-0.0002 L16,-0.0002 L16,8.6698 L3.649,-0.0002 L2.896,-0.0002 C1.46,-0.0002 0.269,1.1208 0.04,2.5898 L10.596,9.9998 L0,9.9998 L0,15.9998 L10.596,15.9998 L0.04,23.4098 C0.269,24.8798 1.46,25.9998 2.896,25.9998 L3.649,25.9998 L16,17.3298 L16,25.9998 L24,25.9998 L24,17.3298 L36.351,25.9998 L37.105,25.9998 C38.54,25.9998 39.731,24.8798 39.96,23.4098 L29.403,15.9998 L40,15.9998 L40,9.9998 L29.403,9.9998 L39.96,2.5898 Z" id="Fill-4" fill="#F5F5F5" mask="url(#mask-4)"></path>
            </g>
            <polygon id="Fill-7" fill="#FF4B55" points="22 0.0001 18 0.0001 18 11.0001 0 11.0001 0 15.0001 18 15.0001 18 26.0001 22 26.0001 22 15.0001 40 15.0001 40 11.0001 22 11.0001"></polygon>
            <path d="M2.0796,25.3878 L16.5416,15.9998 L14.0276,15.9998 L0.8726,24.5388 C1.1946,24.9148 1.6086,25.2088 2.0796,25.3878" id="Fill-9" fill="#FF4B55"></path>
            <path d="M27.0059,16.0001 L24.4919,16.0001 L38.4989,25.0921 C38.8919,24.8351 39.2189,24.4871 39.4509,24.0791 L27.0059,16.0001 Z" id="Fill-11" fill="#FF4B55"></path>
            <path d="M0.4717,2.0641 L12.6977,10.0001 L15.2107,10.0001 L1.3577,1.0071 C0.9857,1.2841 0.6807,1.6471 0.4717,2.0641" id="Fill-13" fill="#FF4B55"></path>
            <path d="M25.9346,10.0001 L39.1136,1.4451 C38.7886,1.0711 38.3716,0.7781 37.8966,0.6041 L23.4206,10.0001 L25.9346,10.0001 Z" id="Fill-15" fill="#FF4B55"></path>
        </g>
    </g>
</svg>