<?xml version="1.0" encoding="UTF-8"?>
<svg width="40px" height="26px" viewBox="0 0 40 26" version="1.1" xmlns="http://www.w3.org/2000/svg" xmlns:xlink="http://www.w3.org/1999/xlink">
    <!-- Generator: sketchtool 48.2 (47327) - http://www.bohemiancoding.com/sketch -->
    <title>D0FECD0A-ACC2-4EEE-962A-8EB51F6C20DB</title>
    <desc>Created with sketchtool.</desc>
    <defs>
        <polygon id="path-1" points="0.0003 0 40 0 40 9 0.0003 9"></polygon>
        <polygon id="path-3" points="0.0002 0 40 0 40 9 0.0002 9"></polygon>
        <polygon id="path-5" points="0 26 40 26 40 0 0 0"></polygon>
    </defs>
    <g id="Mobile-Menu-EN" stroke="none" stroke-width="1" fill="none" fill-rule="evenodd" transform="translate(-295.000000, -214.000000)">
        <g id="Page-1" transform="translate(295.000000, 214.000000)">
            <g id="Group-3">
                <mask id="mask-2" fill="white">
                    <use xlink:href="#path-1"></use>
                </mask>
                <g id="Clip-2"></g>
                <path d="M37.0283,0 L2.9723,0 C1.3303,0 0.0003,1.331 0.0003,2.972 L0.0003,9 L40.0003,9 L40.0003,2.972 C40.0003,1.331 38.6693,0 37.0283,0" id="Fill-1" fill="#464655" mask="url(#mask-2)"></path>
            </g>
            <g id="Group-6" transform="translate(0.000000, 17.000000)">
                <mask id="mask-4" fill="white">
                    <use xlink:href="#path-3"></use>
                </mask>
                <g id="Clip-5"></g>
                <path d="M2.9722,9 L37.0282,9 C38.6692,9 40.0002,7.669 40.0002,6.028 L40.0002,0 L0.0002,0 L0.0002,6.028 C0.0002,7.669 1.3302,9 2.9722,9" id="Fill-4" fill="#FFE15A" mask="url(#mask-4)"></path>
            </g>
            <mask id="mask-6" fill="white">
                <use xlink:href="#path-5"></use>
            </mask>
            <g id="Clip-8"></g>
            <polygon id="Fill-7" fill="#FF4B55" mask="url(#mask-6)" points="0 17 40 17 40 8 0 8"></polygon>
        </g>
    </g>
</svg>