<?xml version="1.0" encoding="UTF-8"?>
<svg width="196px" height="40px" viewBox="0 0 196 40" version="1.1" xmlns="http://www.w3.org/2000/svg" xmlns:xlink="http://www.w3.org/1999/xlink">
    <!-- Generator: sketchtool 51.2 (57519) - http://www.bohemiancoding.com/sketch -->
    <title>E5C5B001-4CC9-4CE9-82A5-9055F0C81B32</title>
    <desc>Created with sketchtool.</desc>
    <defs>
        <polygon id="path-1" points="0.954671429 0.837857143 18.7425 0.837857143 18.7425 11.4033571 0.954671429 11.4033571"></polygon>
        <linearGradient x1="11.7607126%" y1="83.8339511%" x2="79.8746594%" y2="6.32923699%" id="linearGradient-3">
            <stop stop-color="#00D0FD" offset="0%"></stop>
            <stop stop-color="#00EA91" offset="100%"></stop>
        </linearGradient>
        <path d="M18.8997802,5.42866091 C18.7575039,5.42895918 18.6140345,5.43164364 18.4708634,5.43641601 C11.3716641,5.70486185 5.58546311,11.5510157 5.43602826,18.6794458 C5.43155416,18.8056154 5.4288697,18.9305918 5.42857143,19.0549717 L5.42857143,19.1232763 C5.43036107,19.7717221 5.48822606,20.403763 5.58546311,21.0364003 L25.7782575,24.5852543 C24.1675824,26.5541554 21.6922135,27.83673 18.9182732,27.83673 C16.0250235,27.83673 13.4595761,26.4646735 11.8489011,24.3171068 L6.12235479,23.302978 C7.94182104,28.6420675 12.9823391,32.4897912 18.9182732,32.4897912 C25.7487284,32.4897912 31.3857928,27.4191476 32.3107378,20.8568399 L28.9996075,20.2605918 L24.0783987,19.3955997 L10.2978807,16.9795871 C11.1929984,13.0420832 14.7126217,10.0894772 18.9478022,10.0894772 C21.7220408,10.0894772 24.1974097,11.3422245 25.8080848,13.3406546 L13.7876766,15.4285667 L27.8366405,17.9042339 L32.3700942,17.2182057 C31.5259812,10.5819262 25.8534223,5.4510314 18.9832967,5.42866091 L18.8997802,5.42866091 Z" id="path-4"></path>
        <linearGradient x1="76.584044%" y1="7.45921004%" x2="23.8665368%" y2="92.4388299%" id="linearGradient-6">
            <stop stop-color="#00EB8E" offset="0%"></stop>
            <stop stop-color="#00CFFF" offset="100%"></stop>
        </linearGradient>
    </defs>
    <g id="eSports-Home-1920" stroke="none" stroke-width="1" fill="none" fill-rule="evenodd">
        <g id="Homepage---Logo-test" transform="translate(-36.000000, -26.000000)">
            <g id="Logo-test-2" transform="translate(37.000000, 27.000000)">
                <g id="Group-24" transform="translate(46.071429, 12.928571)">
                    <path d="M10.6689571,0.837857143 L5.93324286,0.837857143 C4.11181429,0.837857143 2.29038571,2.29621429 1.9261,4.23785714 L1.19752857,8.12357143 C0.833242857,9.945 2.04752857,11.5235714 3.86895714,11.5235714 L12.0046714,11.5235714 L12.4903857,8.97478571 L4.35467143,8.97478571 C3.99038571,8.97478571 3.6261,8.60928571 3.74752857,8.245 L3.86895714,7.7605 L9.33324286,7.7605 C11.1546714,7.7605 12.9761,6.30214286 13.3403857,4.35928571 C13.7046714,2.29621429 12.4903857,0.837857143 10.6689571,0.837857143 M10.7903857,4.23785714 C10.6689571,4.60214286 10.3046714,4.96642857 9.94038571,4.96642857 L4.4761,4.96642857 L4.59752857,4.23785714 C4.71895714,3.87357143 5.08324286,3.5105 5.44752857,3.5105 L10.1832429,3.5105 C10.5475286,3.38785714 10.9118143,3.75214286 10.7903857,4.23785714" id="Fill-1" fill="#FFFFFF"></path>
                    <path d="M104.168957,4.23822143 L103.440386,8.12393571 C103.0761,9.94536429 104.290386,11.5239357 106.111814,11.5239357 L114.247529,11.5239357 L114.733243,8.97393571 L106.597529,8.97393571 C106.233243,8.97393571 105.868957,8.60965 105.990386,8.24536429 L106.718957,4.35965 C106.840386,3.99536429 107.204671,3.63107857 107.568957,3.63107857 L115.704671,3.63107857 L116.190386,1.08107857 L108.054671,1.08107857 C106.354671,0.838221429 104.533243,2.29536429 104.168957,4.23822143" id="Fill-3" fill="#FFFFFF"></path>
                    <path d="M39.3262214,0.837857143 L31.1905071,0.837857143 L29.1262214,11.4033571 L31.6762214,11.4033571 L32.4047929,7.51642857 L37.8690786,7.51642857 C39.6905071,7.51642857 41.5119357,6.05928571 41.8762214,4.11764286 C42.3619357,2.29621429 41.2690786,0.837857143 39.3262214,0.837857143 M39.44765,4.23785714 C39.3262214,4.60214286 38.9619357,4.96642857 38.59765,4.96642857 L33.1333643,4.96642857 L33.3762214,3.5105 L38.8405071,3.5105 C39.3262214,3.38785714 39.5690786,3.75214286 39.44765,4.23785714" id="Fill-5" fill="#FFFFFF"></path>
                    <g id="Group-9" transform="translate(129.928571, 0.000000)">
                        <mask id="mask-2" fill="white">
                            <use xlink:href="#path-1"></use>
                        </mask>
                        <g id="Clip-8"></g>
                        <path d="M15.5261,0.837857143 L13.8261,0.837857143 C12.8546714,0.837857143 11.8832429,1.20214286 11.0332429,1.80928571 C10.4261,1.20214286 9.5761,0.837857143 8.60467143,0.837857143 L3.01895714,0.837857143 L0.954671429,11.4033571 L3.50467143,11.4033571 L5.08324286,3.38785714 L8.11895714,3.38785714 C8.84752857,3.38785714 9.33324286,3.995 9.21181429,4.72478571 L7.8761,11.4033571 L10.4261,11.4033571 L11.7618143,4.72478571 C11.8832429,3.995 12.6118143,3.38785714 13.3403857,3.38785714 L15.0403857,3.38785714 C15.7689571,3.38785714 16.2546714,3.995 16.1332429,4.72478571 L14.7975286,11.4033571 L17.3475286,11.4033571 L18.6832429,4.72478571 C19.0475286,2.53785714 17.7118143,0.837857143 15.5261,0.837857143" id="Fill-7" fill="#FFFFFF" mask="url(#mask-2)"></path>
                    </g>
                    <path d="M85.9546714,4.23822143 C85.5903857,6.05965 86.8046714,7.63822143 88.6261,7.63822143 L93.3618143,7.63822143 C93.7261,7.63822143 94.0903857,8.00250714 93.9689571,8.36679286 C93.8475286,8.73107857 93.4832429,9.09536429 93.1189571,9.09536429 L84.9832429,9.09536429 L84.4975286,11.6453643 L92.6332429,11.6453643 C94.4546714,11.6453643 96.2761,10.1882214 96.6403857,8.24536429 C97.0046714,6.42393571 95.7903857,4.84536429 93.9689571,4.84536429 L89.2332429,4.84536429 C88.8689571,4.84536429 88.5046714,4.48107857 88.6261,4.11679286 C88.7475286,3.75250714 89.1118143,3.38822143 89.4761,3.38822143 L97.6118143,3.38822143 L98.0975286,0.838221429 L89.9618143,0.838221429 C88.1403857,0.838221429 86.3189571,2.29536429 85.9546714,4.23822143" id="Fill-10" fill="#FFFFFF"></path>
                    <path d="M16.1332429,4.23822143 C15.7689571,6.05965 16.9832429,7.63822143 18.8046714,7.63822143 L23.5403857,7.63822143 C23.9046714,7.63822143 24.2689571,8.00250714 24.1475286,8.36679286 C24.0261,8.73107857 23.6618143,9.09536429 23.2975286,9.09536429 L15.1618143,9.09536429 L14.6761,11.6453643 L22.8118143,11.6453643 C24.6332429,11.6453643 26.4546714,10.1882214 26.8189571,8.24536429 C27.1832429,6.42393571 25.9689571,4.84536429 24.1475286,4.84536429 L19.4118143,4.84536429 C19.0475286,4.84536429 18.6832429,4.48107857 18.8046714,4.11679286 C18.9261,3.75250714 19.2903857,3.38822143 19.6546714,3.38822143 L27.7903857,3.38822143 L28.2761,0.838221429 L20.1403857,0.838221429 C18.3189571,0.838221429 16.4975286,2.29536429 16.1332429,4.23822143" id="Fill-12" fill="#FFFFFF"></path>
                    <path d="M52.5618143,0.837857143 L48.9189571,0.837857143 C46.7332429,0.837857143 44.6689571,2.53785714 44.3046714,4.72478571 L43.6975286,7.51642857 C43.3332429,9.70214286 44.6689571,11.4033571 46.8546714,11.4033571 L50.4975286,11.4033571 C52.6832429,11.4033571 54.7475286,9.70214286 55.1118143,7.51642857 L55.7189571,4.72478571 C56.0832429,2.53785714 54.7475286,0.837857143 52.5618143,0.837857143 M53.1689571,4.72478571 L52.5618143,7.51642857 C52.4403857,8.245 51.7118143,8.85214286 50.9832429,8.85214286 L47.3403857,8.85214286 C46.6118143,8.85214286 46.1261,8.245 46.2475286,7.51642857 L46.8546714,4.72478571 C46.9761,3.995 47.7046714,3.38785714 48.4332429,3.38785714 L52.0761,3.38785714 C52.8046714,3.38785714 53.2903857,3.995 53.1689571,4.72478571" id="Fill-14" fill="#FFFFFF"></path>
                    <path d="M126.390143,0.837857143 L122.747286,0.837857143 C120.561571,0.837857143 118.497286,2.53785714 118.133,4.72478571 L117.525857,7.51642857 C117.161571,9.70214286 118.497286,11.4033571 120.683,11.4033571 L124.325857,11.4033571 C126.511571,11.4033571 128.575857,9.70214286 128.940143,7.51642857 L129.547286,4.72478571 C129.911571,2.53785714 128.454429,0.837857143 126.390143,0.837857143 M126.875857,4.72478571 L126.268714,7.51642857 C126.147286,8.245 125.418714,8.85214286 124.690143,8.85214286 L121.047286,8.85214286 C120.318714,8.85214286 119.833,8.245 119.954429,7.51642857 L120.561571,4.72478571 C120.683,3.995 121.411571,3.38785714 122.140143,3.38785714 L125.783,3.38785714 C126.511571,3.38785714 126.997286,3.995 126.875857,4.72478571" id="Fill-16" fill="#FFFFFF"></path>
                    <path d="M67.1332429,0.837857143 L58.9975286,0.837857143 L56.9332429,11.4033571 L59.4832429,11.4033571 L60.2118143,7.51642857 L65.6761,7.51642857 C66.0403857,7.51642857 66.4046714,7.88071429 66.2832429,8.245 L65.6761,11.645 L68.2261,11.645 L68.8332429,8.245 C68.9546714,7.51642857 68.8332429,6.78785714 68.5903857,6.18071429 C69.1975286,5.57357143 69.5618143,4.845 69.6832429,4.11764286 C70.1689571,2.29621429 68.9546714,0.837857143 67.1332429,0.837857143 Z M60.8189571,4.96642857 L61.0618143,3.5105 L66.5261,3.5105 C66.8903857,3.5105 67.2546714,3.87357143 67.1332429,4.23785714 C67.0118143,4.60214286 66.6475286,4.96642857 66.2832429,4.96642857 L60.8189571,4.96642857 Z" id="Fill-18" fill="#FFFFFF"></path>
                    <polygon id="Fill-20" fill="#FFFFFF" points="77.0906286 0.837857143 72.8406286 0.837857143 72.3549143 3.38785714 76.6049143 3.38785714 75.0263429 11.645 77.5763429 11.645 79.2763429 3.38785714 83.7692 3.38785714 84.2549143 0.837857143 79.7620571 0.837857143"></polygon>
                    <path d="M100.162057,8.85226429 C99.4334857,8.85226429 98.5834857,9.45940714 98.4620571,10.3094071 C98.3406286,11.0379786 98.8263429,11.76655 99.5549143,11.76655 C100.283486,11.76655 101.133486,11.1594071 101.254914,10.3094071 C101.376343,9.45940714 100.890629,8.85226429 100.162057,8.85226429" id="Fill-22" fill="#FFFFFF"></path>
                </g>
                <g id="1111">
                    <circle id="Oval-8" stroke="url(#linearGradient-3)" stroke-width="2" fill-rule="nonzero" cx="19" cy="19" r="19"></circle>
                    <mask id="mask-5" fill="white">
                        <use xlink:href="#path-4"></use>
                    </mask>
                    <g id="Clip-2"></g>
                    <path d="M18.8997802,5.42866091 C18.7575039,5.42895918 18.6140345,5.43164364 18.4708634,5.43641601 C11.3716641,5.70486185 5.58546311,11.5510157 5.43602826,18.6794458 C5.43155416,18.8056154 5.4288697,18.9305918 5.42857143,19.0549717 L5.42857143,19.1232763 C5.43036107,19.7717221 5.48822606,20.403763 5.58546311,21.0364003 L25.7782575,24.5852543 C24.1675824,26.5541554 21.6922135,27.83673 18.9182732,27.83673 C16.0250235,27.83673 13.4595761,26.4646735 11.8489011,24.3171068 L6.12235479,23.302978 C7.94182104,28.6420675 12.9823391,32.4897912 18.9182732,32.4897912 C25.7487284,32.4897912 31.3857928,27.4191476 32.3107378,20.8568399 L28.9996075,20.2605918 L24.0783987,19.3955997 L10.2978807,16.9795871 C11.1929984,13.0420832 14.7126217,10.0894772 18.9478022,10.0894772 C21.7220408,10.0894772 24.1974097,11.3422245 25.8080848,13.3406546 L13.7876766,15.4285667 L27.8366405,17.9042339 L32.3700942,17.2182057 C31.5259812,10.5819262 25.8534223,5.4510314 18.9832967,5.42866091 L18.8997802,5.42866091 Z" id="Fill-1" fill="url(#linearGradient-6)" mask="url(#mask-5)"></path>
                </g>
            </g>
        </g>
    </g>
</svg>