<?xml version="1.0" encoding="UTF-8"?>
<svg width="58px" height="58px" viewBox="0 0 58 58" version="1.1" xmlns="http://www.w3.org/2000/svg" xmlns:xlink="http://www.w3.org/1999/xlink">
    <!-- Generator: sketchtool 51.2 (57519) - http://www.bohemiancoding.com/sketch -->
    <title>09C0E979-FCEA-425E-A59D-75EEA662D39E</title>
    <desc>Created with sketchtool.</desc>
    <defs>
        <linearGradient x1="11.7607126%" y1="83.8339511%" x2="79.8746594%" y2="6.32923699%" id="linearGradient-1">
            <stop stop-color="#00D0FD" offset="0%"></stop>
            <stop stop-color="#00EA91" offset="100%"></stop>
        </linearGradient>
        <path d="M26.8575824,7.71428571 C26.6554003,7.71470958 26.4515228,7.71852433 26.2480691,7.72530612 C16.1597331,8.10678179 7.93723705,16.4144741 7.72488226,26.5443485 C7.71852433,26.7236421 7.71470958,26.9012402 7.71428571,27.0779906 L7.71428571,27.1750549 C7.71682889,28.0965306 7.79905808,28.9946939 7.93723705,29.8937049 L36.6322606,34.9368132 C34.3434066,37.7347253 30.8257771,39.5573312 26.8838619,39.5573312 C22.7724019,39.5573312 19.1267661,37.6075667 16.8379121,34.5557614 L8.70018838,33.1146311 C11.2857457,40.7017582 18.4485871,46.1695761 26.8838619,46.1695761 C36.5902983,46.1695761 44.6008634,38.9639246 45.915259,29.63854 L41.2099686,28.7912402 L34.2166719,27.5620408 L14.6338305,24.1287598 C15.9058399,18.5333595 20.9074097,14.337551 26.9258242,14.337551 C30.8681633,14.337551 34.3857928,16.1177708 36.6746468,18.9576452 L19.5930141,21.9246782 L39.5573312,25.4427316 L45.9996075,24.4678493 C44.8000785,15.0373469 36.7390738,7.74607535 26.9762637,7.71428571 L26.8575824,7.71428571 Z" id="path-2"></path>
        <linearGradient x1="76.584044%" y1="7.45921004%" x2="23.8665368%" y2="92.4388299%" id="linearGradient-4">
            <stop stop-color="#00EB8E" offset="0%"></stop>
            <stop stop-color="#00CFFF" offset="100%"></stop>
        </linearGradient>
    </defs>
    <g id="eSports-Home-1920" stroke="none" stroke-width="1" fill="none" fill-rule="evenodd">
        <g id="Mobile-Home-Logo-Update" transform="translate(-291.000000, -24.000000)">
            <g id="Mobile/Menu">
                <g id="LOGO-" transform="translate(293.000000, 26.000000)">
                    <g id="1111">
                        <circle id="Oval-8" stroke="url(#linearGradient-1)" stroke-width="3" fill-rule="nonzero" cx="27" cy="27" r="27"></circle>
                        <mask id="mask-3" fill="white">
                            <use xlink:href="#path-2"></use>
                        </mask>
                        <g id="Clip-2"></g>
                        <path d="M26.8575824,7.71428571 C26.6554003,7.71470958 26.4515228,7.71852433 26.2480691,7.72530612 C16.1597331,8.10678179 7.93723705,16.4144741 7.72488226,26.5443485 C7.71852433,26.7236421 7.71470958,26.9012402 7.71428571,27.0779906 L7.71428571,27.1750549 C7.71682889,28.0965306 7.79905808,28.9946939 7.93723705,29.8937049 L36.6322606,34.9368132 C34.3434066,37.7347253 30.8257771,39.5573312 26.8838619,39.5573312 C22.7724019,39.5573312 19.1267661,37.6075667 16.8379121,34.5557614 L8.70018838,33.1146311 C11.2857457,40.7017582 18.4485871,46.1695761 26.8838619,46.1695761 C36.5902983,46.1695761 44.6008634,38.9639246 45.915259,29.63854 L41.2099686,28.7912402 L34.2166719,27.5620408 L14.6338305,24.1287598 C15.9058399,18.5333595 20.9074097,14.337551 26.9258242,14.337551 C30.8681633,14.337551 34.3857928,16.1177708 36.6746468,18.9576452 L19.5930141,21.9246782 L39.5573312,25.4427316 L45.9996075,24.4678493 C44.8000785,15.0373469 36.7390738,7.74607535 26.9762637,7.71428571 L26.8575824,7.71428571 Z" id="Fill-1" fill="url(#linearGradient-4)" mask="url(#mask-3)"></path>
                    </g>
                </g>
            </g>
        </g>
    </g>
</svg>