<?xml version="1.0" encoding="UTF-8"?>
<svg width="42px" height="29px" viewBox="0 0 42 29" version="1.1" xmlns="http://www.w3.org/2000/svg" xmlns:xlink="http://www.w3.org/1999/xlink">
    <!-- Generator: sketchtool 51.2 (57519) - http://www.bohemiancoding.com/sketch -->
    <title>64A3E4A2-F9A0-4593-8D0C-6C37CEB7F4BC</title>
    <desc>Created with sketchtool.</desc>
    <defs>
        <polygon id="path-1" points="0 0.0348 41.9999 0.0348 41.9999 28.9998 0 28.9998"></polygon>
    </defs>
    <g id="Symbols" stroke="none" stroke-width="1" fill="none" fill-rule="evenodd">
        <g id="Mobile/-Icons/-All-games\">
            <g id="Page-1">
                <polygon id="Fill-1" fill="#00D1FB" points="14.4997411 8.5 11.5002589 8.5 11.5002589 13.0002589 7 13.0002589 7 15.9997411 11.5002589 15.9997411 11.5002589 20.5 14.4997411 20.5 14.4997411 15.9997411 19 15.9997411 19 13.0002589 14.4997411 13.0002589"></polygon>
                <g id="Group-13">
                    <g id="Group-4">
                        <mask id="mask-2" fill="white">
                            <use xlink:href="#path-1"></use>
                        </mask>
                        <g id="Clip-3"></g>
                        <path d="M38.3789,0.0348 L3.6209,0.0348 C1.5929,0.0348 -0.0001,1.6278 -0.0001,3.6548 L-0.0001,25.3798 C-0.0001,27.4068 1.5929,28.9998 3.6209,28.9998 L38.2339,28.9998 C40.2619,28.9998 41.9999,26.6818 41.9999,25.2338 L41.9999,3.6548 C41.9999,1.6278 40.4069,0.0348 38.3789,0.0348 M38.5249,26.1028 L3.4759,26.1028 C3.1869,26.1028 2.8969,25.8138 2.8969,25.5238 L2.8969,3.5108 C2.8969,3.2208 3.1869,2.9308 3.4759,2.9308 L38.5249,2.9308 C38.8139,2.9308 39.1039,3.2208 39.1039,3.5108 L39.1039,25.5238 C39.1039,25.8138 38.8139,26.1028 38.5249,26.1028" id="Fill-2" fill="#FFFFFF" mask="url(#mask-2)"></path>
                    </g>
                    <path d="M28.6758,11.4762 C29.9798,11.4762 30.9928,10.4622 30.9928,9.1592 C30.9928,7.8552 29.9798,6.8412 28.6758,6.8412 C27.3718,6.8412 26.3588,7.8552 26.3588,9.1592 C26.3588,10.4612 27.3718,11.4762 28.6758,11.4762" id="Fill-5" fill="#00D2F5"></path>
                    <path d="M28.6758,16.11 C27.3718,16.11 26.3588,17.124 26.3588,18.427 C26.3588,19.731 27.3718,20.745 28.6758,20.745 C29.9798,20.745 30.9928,19.731 30.9928,18.427 C30.9928,17.124 29.9798,16.11 28.6758,16.11" id="Fill-7" fill="#00D2F5"></path>
                    <path d="M33.165,11.4762 C31.862,11.4762 30.849,12.4902 30.849,13.7922 C30.849,15.0962 31.862,16.1102 33.165,16.1102 C34.469,16.1102 35.482,15.0962 35.482,13.7922 C35.482,12.4902 34.469,11.4762 33.165,11.4762" id="Fill-9" fill="#00D2F5"></path>
                    <path d="M24.041,11.4762 C22.738,11.4762 21.725,12.4902 21.725,13.7922 C21.725,15.0962 22.738,16.1102 24.041,16.1102 C25.345,16.1102 26.358,15.0962 26.358,13.7922 C26.358,12.4902 25.345,11.4762 24.041,11.4762" id="Fill-11" fill="#00D2F5"></path>
                </g>
            </g>
        </g>
    </g>
</svg>