<?xml version="1.0" encoding="UTF-8"?>
<svg width="68px" height="84px" viewBox="0 0 68 84" version="1.1" xmlns="http://www.w3.org/2000/svg" xmlns:xlink="http://www.w3.org/1999/xlink">
    <!-- Generator: sketchtool 51.2 (57519) - http://www.bohemiancoding.com/sketch -->
    <title>6F8368E2-2CB2-4B8C-8B44-F587B64FFE68</title>
    <desc>Created with sketchtool.</desc>
    <defs>
        <polygon id="path-1" points="0 0.613266583 67.844806 0.613266583 67.844806 83.106383 0 83.106383"></polygon>
    </defs>
    <g id="eSports-Home-1920" stroke="none" stroke-width="1" fill="none" fill-rule="evenodd">
        <g id="Homepage---Astralis-Section" transform="translate(-368.000000, -2059.000000)">
            <g id="ASTRALIS" transform="translate(-870.000000, 721.000000)">
                <g id="Group-3" transform="translate(1238.000000, 1338.000000)">
                    <mask id="mask-2" fill="white">
                        <use xlink:href="#path-1"></use>
                    </mask>
                    <g id="Clip-2"></g>
                    <path d="M33.9095262,0.613266583 L33.9393038,0.613266583 C34.0205888,0.825138552 34.0479521,1.05070567 34.1188552,1.26580002 C34.8463961,3.37243576 35.5134965,5.50082261 36.2145595,7.61712551 C38.5219267,14.6620699 40.7970214,21.717487 43.0859587,28.7688761 C45.0850063,34.9590823 47.1106929,41.1412324 49.1162594,47.3298273 C55.3591887,47.3362721 61.6019571,47.3306329 67.844806,47.3322441 L67.844806,47.4119982 C51.4976684,59.3082467 35.1545548,71.21094 18.8066124,83.106383 L18.7044026,83.106383 C20.6399513,77.1546335 22.5755,71.2036897 24.4997815,65.2479122 C27.6529957,62.9648508 30.8086242,60.6842061 33.9674719,58.4092007 C37.0876891,60.6801782 40.1902007,62.9761291 43.3128324,65.2438842 C42.1450647,61.5381388 40.9273993,57.8468941 39.7717037,54.1379262 C42.8854825,51.8798383 45.9960421,49.6153056 49.0961393,47.3386889 C45.2363091,47.3266049 41.3757545,47.3282161 37.515039,47.3266049 C36.3979739,43.9849892 35.2801039,40.6441791 34.1623145,37.3033691 C34.064853,37.0214102 33.9843728,36.7330065 33.8652621,36.4591036 C32.691056,40.0915397 31.5031683,43.7183367 30.3305718,47.3507728 C26.4699368,47.3628568 22.6093017,47.3274105 18.7494715,47.3435225 C21.811743,49.5967768 24.8909153,51.8290857 27.9620396,54.0718673 C28.0425198,54.136315 28.1865794,54.2096243 28.0908079,54.3385198 C26.8892386,57.9701504 25.7102037,61.6090313 24.4981719,65.2374395 C16.9016462,59.8560526 9.45642314,54.2668217 1.91301428,48.8121255 C1.27319672,48.3634081 0.652694397,47.8856891 0,47.4546948 L0,47.4490557 C6.24204407,47.3966919 12.4848929,47.3781631 18.726937,47.3330497 C19.8898759,43.7215591 21.0713252,40.1157076 22.2431168,36.5066338 C25.595117,26.1627704 28.9334356,15.8140734 32.3216519,5.48148829 C32.8463828,3.85740506 33.4065249,2.24379459 33.9095262,0.613266583" id="Fill-1" fill="#FFFFFF" mask="url(#mask-2)"></path>
                </g>
            </g>
        </g>
    </g>
</svg>