<?xml version="1.0" encoding="UTF-8"?>
<svg width="80px" height="80px" viewBox="0 0 80 80" version="1.1" xmlns="http://www.w3.org/2000/svg" xmlns:xlink="http://www.w3.org/1999/xlink">
    <!-- Generator: sketchtool 51.2 (57519) - http://www.bohemiancoding.com/sketch -->
    <title>85D83A26-0271-43DE-99E3-396426255130</title>
    <desc>Created with sketchtool.</desc>
    <defs>
        <polygon id="path-1" points="0 0.10735109 79.8926877 0.10735109 79.8926877 80 0 80"></polygon>
    </defs>
    <g id="eSports-Home-1920" stroke="none" stroke-width="1" fill="none" fill-rule="evenodd">
        <g id="Homepage---Astralis-Section" transform="translate(-481.000000, -2060.000000)">
            <g id="ASTRALIS" transform="translate(-870.000000, 721.000000)">
                <g id="Group-6" transform="translate(1351.000000, 1339.000000)">
                    <g id="Group-3">
                        <mask id="mask-2" fill="white">
                            <use xlink:href="#path-1"></use>
                        </mask>
                        <g id="Clip-2"></g>
                        <path d="M39.9463438,77.4750993 C19.278063,77.4750993 2.52300242,60.7210073 2.52300242,40.0536949 C2.52300242,19.3863826 19.278063,2.63229056 39.9463438,2.63229056 C60.6146247,2.63229056 77.3696852,19.3863826 77.3696852,40.0536949 C77.3696852,60.7210073 60.6146247,77.4750993 39.9463438,77.4750993 M68.1919613,11.8067215 C60.6471671,4.26231477 50.6159806,0.10735109 39.9463438,0.10735109 C29.276707,0.10735109 19.2455206,4.26231477 11.7007264,11.8067215 C4.15554479,19.3517094 0,29.3832833 0,40.0536949 C0,50.7239128 4.15554479,60.7558741 11.7007264,68.3006683 C19.2455206,75.8450751 29.276707,80.0000387 39.9463438,80.0000387 C50.6159806,80.0000387 60.6471671,75.8450751 68.1919613,68.3006683 C75.7373366,60.7558741 79.8926877,50.7239128 79.8926877,40.0536949 C79.8926877,29.3832833 75.7373366,19.3517094 68.1919613,11.8067215" id="Fill-1" fill="#FFFFFF" mask="url(#mask-2)"></path>
                    </g>
                    <path d="M40.1387439,17.6959861 C47.12838,17.6959861 53.3703082,20.8850822 57.4772829,25.8821742 L22.5569676,31.9452535 C22.4513133,32.1676634 22.349529,32.3921933 22.2523889,32.6194215 L55.6850289,38.4681855 L74,35.6466247 C71.8540167,18.9248298 57.5119205,6 40.1387439,6 C21.2844711,6 6,21.2223589 6,40 C6,41.7657882 6.1350673,43.4999688 6.3957201,45.193098 L57.4443869,54.1575281 C53.3372186,59.1316853 47.1098034,62.3040139 40.1387439,62.3040139 C31.6755585,62.3040139 24.3085854,57.6283947 20.5005777,50.7292546 L7.04377223,48.375834 L7.04415924,48.3766049 C10.7904385,63.1036488 24.18687,74 40.1387439,74 C57.3803364,74 71.6365158,61.2704052 73.9493014,44.7328598 L18.3089269,34.9990534 C20.5884295,25.0887066 29.4966791,17.6959861 40.1387439,17.6959861" id="Fill-4" fill="#FFFFFF"></path>
                </g>
            </g>
        </g>
    </g>
</svg>