<?xml version="1.0" encoding="UTF-8"?>
<svg width="34px" height="34px" viewBox="0 0 34 34" version="1.1" xmlns="http://www.w3.org/2000/svg" xmlns:xlink="http://www.w3.org/1999/xlink">
    <!-- Generator: sketchtool 48.2 (47327) - http://www.bohemiancoding.com/sketch -->
    <title>265707F8-1684-4DA5-8B57-085E90DC55CD</title>
    <desc>Created with sketchtool.</desc>
    <defs></defs>
    <g id="Symbols" stroke="none" stroke-width="1" fill="#03cef3" fill-rule="evenodd">
        <g id="Mobile/Profile">
            <g id="Page-1" transform="translate(1.000000, 1.000000)">
                <path d="M30.7325537,30.9578398 C30.7048383,30.523259 30.6877827,30.1241117 30.6504734,29.7270487 C30.4873788,28.0054001 30.038602,26.3681664 29.0845515,24.8935098 C27.6060398,22.6070104 25.4005309,21.3178582 22.8144679,20.5633343 C22.6982763,20.5299851 22.5703589,20.5435332 22.4626951,20.5987677 C18.1646711,22.7570814 13.870911,22.7602079 9.57182108,20.6164844 C9.44496968,20.5529127 9.29466675,20.5351959 9.15715557,20.5737559 C7.56884809,21.0229269 6.10206213,21.7128369 4.82608626,22.7570814 C2.64189699,24.5443861 1.64733936,26.9111319 1.35952525,29.6165797 C1.31155623,30.0574134 1.30196243,30.5024158 1.274247,30.9578398 L30.7325537,30.9578398 Z M31.9797482,32 L0.00146905993,32 C0.00146905993,31.7498816 0.0025350381,31.5164377 0.000403081758,31.2829938 C-0.00919072178,29.650971 0.150706004,28.0408335 0.669837373,26.4796776 C1.72195783,23.3229744 3.87416775,21.1479861 6.95697662,19.8317378 C7.68717167,19.5190898 8.46000585,19.3054469 9.21258643,19.0407383 C9.41405631,18.9698714 9.63684575,18.9927989 9.82232595,19.0990992 C11.8263649,20.255897 13.9966965,20.8092841 16.3205289,20.7509231 C18.4002523,20.6988151 20.3424645,20.1548075 22.1375718,19.1251532 C22.3305138,19.0146843 22.5607651,18.9782086 22.7771587,19.0376118 C24.7364265,19.5732821 26.5581832,20.3767876 28.1113134,21.6878251 C30.2891068,23.5251535 31.4563529,25.8950257 31.8219834,28.6473707 C31.9562967,29.6540975 31.9467029,30.6785409 31.9989358,31.6956892 C32.0042657,31.7873993 31.988276,31.8801516 31.9797482,32 Z" id="Fill-1" fill="#03cef3"></path>
                <path d="M30.7325537,30.9578398 C30.7048383,30.523259 30.6877827,30.1241117 30.6504734,29.7270487 C30.4873788,28.0054001 30.038602,26.3681664 29.0845515,24.8935098 C27.6060398,22.6070104 25.4005309,21.3178582 22.8144679,20.5633343 C22.6982763,20.5299851 22.5703589,20.5435332 22.4626951,20.5987677 C18.1646711,22.7570814 13.870911,22.7602079 9.57182108,20.6164844 C9.44496968,20.5529127 9.29466675,20.5351959 9.15715557,20.5737559 C7.56884809,21.0229269 6.10206213,21.7128369 4.82608626,22.7570814 C2.64189699,24.5443861 1.64733936,26.9111319 1.35952525,29.6165797 C1.31155623,30.0574134 1.30196243,30.5024158 1.274247,30.9578398 L30.7325537,30.9578398 Z M31.9797482,32 L0.00146905993,32 C0.00146905993,31.7498816 0.0025350381,31.5164377 0.000403081758,31.2829938 C-0.00919072178,29.650971 0.150706004,28.0408335 0.669837373,26.4796776 C1.72195783,23.3229744 3.87416775,21.1479861 6.95697662,19.8317378 C7.68717167,19.5190898 8.46000585,19.3054469 9.21258643,19.0407383 C9.41405631,18.9698714 9.63684575,18.9927989 9.82232595,19.0990992 C11.8263649,20.255897 13.9966965,20.8092841 16.3205289,20.7509231 C18.4002523,20.6988151 20.3424645,20.1548075 22.1375718,19.1251532 C22.3305138,19.0146843 22.5607651,18.9782086 22.7771587,19.0376118 C24.7364265,19.5732821 26.5581832,20.3767876 28.1113134,21.6878251 C30.2891068,23.5251535 31.4563529,25.8950257 31.8219834,28.6473707 C31.9562967,29.6540975 31.9467029,30.6785409 31.9989358,31.6956892 C32.0042657,31.7873993 31.988276,31.8801516 31.9797482,32 Z" id="Stroke-3" stroke="#03cef3"></path>
                <path d="M22.6828461,8.49399671 C22.6621635,4.49265646 19.4411239,1.28766245 15.4559175,1.30182456 C11.5022793,1.31707606 8.29865664,4.56564579 8.31498499,8.54193 C8.33131334,12.5171248 11.5828325,15.7221188 15.5778359,15.6981522 C19.4824891,15.6763643 22.7035286,12.4103643 22.6828461,8.49399671 M15.4994598,16.9999767 C10.8317283,17.0108707 7.00653973,13.1936378 7.00000839,8.51905275 C6.99347705,3.81941163 10.8023373,0.00108939293 15.4972827,0 C20.1769883,0 23.9989112,3.81178588 23.9999998,8.4798346 C24.0010883,13.1827439 20.2031137,16.9890828 15.4994598,16.9999767" id="Fill-5" fill="#03cef3"></path>
                <path d="M22.6828461,8.49399671 C22.6621635,4.49265646 19.4411239,1.28766245 15.4559175,1.30182456 C11.5022793,1.31707606 8.29865664,4.56564579 8.31498499,8.54193 C8.33131334,12.5171248 11.5828325,15.7221188 15.5778359,15.6981522 C19.4824891,15.6763643 22.7035286,12.4103643 22.6828461,8.49399671 Z M15.4994598,16.9999767 C10.8317283,17.0108707 7.00653973,13.1936378 7.00000839,8.51905275 C6.99347705,3.81941163 10.8023373,0.00108939293 15.4972827,0 C20.1769883,0 23.9989112,3.81178588 23.9999998,8.4798346 C24.0010883,13.1827439 20.2031137,16.9890828 15.4994598,16.9999767 Z" id="Stroke-7" stroke="#03cef3"></path>
            </g>
        </g>
    </g>
</svg>