<?xml version="1.0" encoding="UTF-8"?>
<svg width="18px" height="18px" viewBox="0 0 18 18" version="1.1" xmlns="http://www.w3.org/2000/svg" xmlns:xlink="http://www.w3.org/1999/xlink">
    <!-- Generator: sketchtool 48.2 (47327) - http://www.bohemiancoding.com/sketch -->
    <title>24D83D5A-037E-4EFE-BEB9-BB884B50C65A</title>
    <desc>Created with sketchtool.</desc>
    <defs></defs>
    <g id="BTNs/Menubar-Buttons" stroke="none" stroke-width="1" fill="none" fill-rule="evenodd" transform="translate(-1396.000000, -14.000000)">
        <g id="Menubar-Buttons" fill="#5e7aa6">
            <path d="M1397.93853,21.4553442 C1397.93912,24.4914618 1400.42047,26.9730495 1403.45722,26.9744566 C1406.4887,26.9759418 1408.97837,24.484583 1408.97482,21.4532337 C1408.97122,18.4150055 1406.48909,15.9334178 1403.45519,15.9347858 C1400.41922,15.9361537 1397.93795,18.4191485 1397.93853,21.4553442 M1408.02939,27.3548653 C1404.73527,29.845208 1400.26461,29.2458873 1397.73837,26.2445549 C1395.29051,23.3363215 1395.44105,19.0498148 1398.10639,16.2607499 C1400.68854,13.558726 1404.99443,13.2422203 1407.965,15.5085701 C1411.16848,17.9525586 1411.95242,22.6366321 1409.35847,26.0324827 C1409.41657,26.0741467 1409.48811,26.1121368 1409.54292,26.166855 C1410.90709,27.5284002 1412.26976,28.8914306 1413.63201,30.254891 C1414.05785,30.6810676 1414.11787,31.2017113 1413.7924,31.6219861 C1413.46431,32.0455832 1412.85318,32.1295365 1412.43781,31.7904009 C1412.22682,31.618234 1412.03967,31.4162457 1411.84638,31.2231686 C1410.6119,29.9897422 1409.37847,28.7552995 1408.14614,27.5198016 C1408.10054,27.4740729 1408.07011,27.4132575 1408.02939,27.3548653" id="Search"></path>
        </g>
    </g>
</svg>