<?xml version="1.0" encoding="UTF-8"?>
<svg width="40px" height="26px" viewBox="0 0 40 26" version="1.1" xmlns="http://www.w3.org/2000/svg" xmlns:xlink="http://www.w3.org/1999/xlink">
    <!-- Generator: sketchtool 48.2 (47327) - http://www.bohemiancoding.com/sketch -->
    <title>FEA0D8BB-486D-455F-983D-AB6E6158A234</title>
    <desc>Created with sketchtool.</desc>
    <defs>
        <polygon id="path-1" points="0.0002 0 40 0 40 5 0.0002 5"></polygon>
        <polygon id="path-3" points="0.0003 0 40 0 40 6 0.0003 6"></polygon>
        <polygon id="path-5" points="0 26 40 26 40 0 0 0"></polygon>
    </defs>
    <g id="Mobile-Menu-EN" stroke="none" stroke-width="1" fill="none" fill-rule="evenodd" transform="translate(-295.000000, -284.000000)">
        <g id="Page-1" transform="translate(295.000000, 284.000000)">
            <g id="Group-3" transform="translate(0.000000, 21.000000)">
                <mask id="mask-2" fill="white">
                    <use xlink:href="#path-1"></use>
                </mask>
                <g id="Clip-2"></g>
                <path d="M2.9722,5 L37.0282,5 C38.6692,5 40.0002,3.669 40.0002,2.028 L40.0002,0 L0.0002,0 L0.0002,2.028 C0.0002,3.669 1.3302,5 2.9722,5" id="Fill-1" fill="#C8414B" mask="url(#mask-2)"></path>
            </g>
            <g id="Group-6">
                <mask id="mask-4" fill="white">
                    <use xlink:href="#path-3"></use>
                </mask>
                <g id="Clip-5"></g>
                <path d="M37.0283,0 L2.9723,0 C1.3303,0 0.0003,1.331 0.0003,2.972 L0.0003,6 L40.0003,6 L40.0003,2.972 C40.0003,1.331 38.6693,0 37.0283,0" id="Fill-4" fill="#C8414B" mask="url(#mask-4)"></path>
            </g>
            <mask id="mask-6" fill="white">
                <use xlink:href="#path-5"></use>
            </mask>
            <g id="Clip-8"></g>
            <polygon id="Fill-7" fill="#FFD250" mask="url(#mask-6)" points="0 21 40 21 40 6 0 6"></polygon>
            <path d="M16.9209,13.0791 L17.5009,10.4691 C17.5549,10.2281 17.3719,10.0001 17.1259,10.0001 L16.7169,10.0001 C16.4709,10.0001 16.2879,10.2281 16.3409,10.4691 L16.9209,13.0791 Z" id="Fill-9" fill="#C8414B" mask="url(#mask-6)"></path>
            <polygon id="Fill-10" fill="#F5F5F5" mask="url(#mask-6)" points="16 18 17 18 17 12 16 12"></polygon>
            <polygon id="Fill-11" fill="#FAB446" mask="url(#mask-6)" points="16 12 18 12 18 11 16 11"></polygon>
            <polygon id="Fill-12" fill="#C8414B" mask="url(#mask-6)" points="15 14 18 14 18 13 15 13"></polygon>
            <polygon id="Fill-13" fill="#C8414B" mask="url(#mask-6)" points="18 15.7197 16 15.0527 16 14.3857 18 15.0527"></polygon>
            <path d="M6.6577,13.0791 L7.2377,10.4691 C7.2917,10.2281 7.1087,10.0001 6.8627,10.0001 L6.4537,10.0001 C6.2077,10.0001 6.0247,10.2281 6.0777,10.4691 L6.6577,13.0791 Z" id="Fill-14" fill="#C8414B" mask="url(#mask-6)"></path>
            <path d="M8.6841,11 C8.3061,11 8.0001,11.307 8.0001,11.685 L8.0001,16.132 C8.0001,16.963 8.7941,18.526 11.5001,18.526 C14.2061,18.526 15.0001,16.963 15.0001,16.132 L15.0001,11.685 C15.0001,11.307 14.6941,11 14.3161,11 L8.6841,11 Z" id="Fill-15" fill="#F5F5F5" mask="url(#mask-6)"></path>
            <path d="M12,14 L9,14 L9,11.632 C8.369,11.254 8.675,10.947 9.053,11 L12,11 L12,14 Z" id="Fill-16" fill="#C8414B" mask="url(#mask-6)"></path>
            <path d="M12,14 L15,14 L15,16.079 C15.21,17.023 14.445,17.789 13.5,17.789 C12.555,17.789 11.79,17.023 12,16.079 L12,14 Z" id="Fill-17" fill="#C8414B" mask="url(#mask-6)"></path>
            <path d="M9,14 L12,14 L12,16.079 C11.79,17.023 11.024,17.789 10.079,17.789 C9.134,17.789 8.369,17.023 9,16.079 L9,14 Z" id="Fill-18" fill="#FAB446" mask="url(#mask-6)"></path>
            <path d="M11,17.4395 L11,14.0005 L10,14.0005 L10,17.7545 C10.675,17.7035 10.905,17.5905 11,17.4395" id="Fill-19" fill="#C8414B" mask="url(#mask-6)"></path>
            <path d="M10,17.7549 L10,13.9999 L9,13.9999 L9,17.4399 C9.252,17.5909 9.482,17.7029 10,17.7549" id="Fill-20" fill="#C8414B" mask="url(#mask-6)"></path>
            <polygon id="Fill-21" fill="#FFB441" mask="url(#mask-6)" points="9 14 11 14 11 13 9 13"></polygon>
            <polygon id="Fill-22" fill="#FAB446" mask="url(#mask-6)" points="9 12 11 12 11 11 9 11"></polygon>
            <polygon id="Fill-23" fill="#FAB446" mask="url(#mask-6)" points="10 13 11 13 11 12 10 12"></polygon>
            <polygon id="Fill-24" fill="#F5F5F5" mask="url(#mask-6)" points="6 18 7 18 7 12 6 12"></polygon>
            <polygon id="Fill-25" fill="#FAB446" mask="url(#mask-6)" points="6 18 8 18 8 17 6 17"></polygon>
            <polygon id="Fill-26" fill="#FAB446" mask="url(#mask-6)" points="6 12 8 12 8 11 6 11"></polygon>
            <polygon id="Fill-27" fill="#5064AA" mask="url(#mask-6)" points="5 19 8 19 8 18 5 18"></polygon>
            <polygon id="Fill-28" fill="#FAB446" mask="url(#mask-6)" points="16 18 18 18 18 17 16 17"></polygon>
            <polygon id="Fill-29" fill="#5064AA" mask="url(#mask-6)" points="15 19 18 19 18 18 15 18"></polygon>
            <polygon id="Fill-30" fill="#FAB446" mask="url(#mask-6)" points="10 11 14 11 14 10 10 10"></polygon>
            <polygon id="Fill-31" fill="#FFB441" mask="url(#mask-6)" points="11 10 12 10 12 8 11 8"></polygon>
            <path d="M11.1055,7.8682 C10.9165,7.8682 10.7635,8.0212 10.7635,8.2112 C10.7635,8.3992 10.9165,8.5532 11.1055,8.5532 C11.2935,8.5532 11.4475,8.3992 11.4475,8.2112 C11.4475,8.0212 11.2935,7.8682 11.1055,7.8682 M11.1055,9.2372 C10.5395,9.2372 10.0795,8.7762 10.0795,8.2112 C10.0795,7.6442 10.5395,7.1842 11.1055,7.1842 C11.6715,7.1842 12.1315,7.6442 12.1315,8.2112 C12.1315,8.7762 11.6715,9.2372 11.1055,9.2372" id="Fill-32" fill="#F5F5F5" mask="url(#mask-6)"></path>
            <path d="M12.4736,7.8682 C12.2856,7.8682 12.1316,8.0212 12.1316,8.2112 C12.1316,8.3992 12.2846,8.5532 12.4736,8.5532 C12.6626,8.5532 12.8156,8.3992 12.8156,8.2112 C12.8156,8.0212 12.6626,7.8682 12.4736,7.8682 M12.4736,9.2372 C11.9076,9.2372 11.4476,8.7762 11.4476,8.2112 C11.4476,7.6442 11.9076,7.1842 12.4736,7.1842 C13.0396,7.1842 13.4996,7.6442 13.4996,8.2112 C13.4996,8.7762 13.0396,9.2372 12.4736,9.2372" id="Fill-33" fill="#F5F5F5" mask="url(#mask-6)"></path>
            <path d="M13.8423,8.5527 C13.6533,8.5527 13.5003,8.7057 13.5003,8.8947 C13.5003,9.0837 13.6533,9.2377 13.8423,9.2377 C14.0303,9.2377 14.1843,9.0837 14.1843,8.8947 C14.1843,8.7057 14.0303,8.5527 13.8423,8.5527 M13.8423,9.9207 C13.2763,9.9207 12.8163,9.4607 12.8163,8.8947 C12.8163,8.3287 13.2763,7.8677 13.8423,7.8677 C14.4083,7.8677 14.8683,8.3287 14.8683,8.8947 C14.8683,9.4607 14.4083,9.9207 13.8423,9.9207" id="Fill-34" fill="#F5F5F5" mask="url(#mask-6)"></path>
            <path d="M9.7368,8.5527 C9.5478,8.5527 9.3948,8.7057 9.3948,8.8947 C9.3948,9.0837 9.5478,9.2377 9.7368,9.2377 C9.9258,9.2377 10.0788,9.0837 10.0788,8.8947 C10.0788,8.7057 9.9258,8.5527 9.7368,8.5527 M9.7368,9.9207 C9.1708,9.9207 8.7108,9.4607 8.7108,8.8947 C8.7108,8.3287 9.1708,7.8677 9.7368,7.8677 C10.3028,7.8677 10.7628,8.3287 10.7628,8.8947 C10.7628,9.4607 10.3028,9.9207 9.7368,9.9207" id="Fill-35" fill="#F5F5F5" mask="url(#mask-6)"></path>
            <path d="M14,15 L12,15 L12,16.026 C12,16.592 12.449,17.053 13,17.053 C13.551,17.053 14,16.592 14,16.026 L14,15 Z M14,16 L14,16.079 C13.842,16.268 13.688,16.421 13.5,16.421 C13.312,16.421 13.158,16.268 13,16.079 L13,16 L14,16 Z" id="Fill-36" fill="#FAB446" mask="url(#mask-6)"></path>
            <path d="M13.5,13.6846 C13.122,13.6846 12.816,13.3776 13,12.9996 L13,12.3156 C12.816,11.9376 13.122,11.6316 13.5,11.6316 C13.878,11.6316 14.184,11.9376 14,12.3156 L14,12.9996 C14.184,13.3776 13.878,13.6846 13.5,13.6846" id="Fill-37" fill="#FFA0D2" mask="url(#mask-6)"></path>
            <path d="M11.7896,13.3418 C12.3566,13.3418 12.8156,13.8008 12.8156,14.3678 C12.8156,14.9348 12.3566,15.3948 11.7896,15.3948 C11.2226,15.3948 10.7636,14.9348 10.7636,14.3678 C10.7636,13.8008 11.2226,13.3418 11.7896,13.3418" id="Fill-38" fill="#5064AA" mask="url(#mask-6)"></path>
            <polygon id="Fill-39" fill="#FAB446" mask="url(#mask-6)" points="11 9 12 9 12 7 11 7"></polygon>
            <path d="M9.7368,10 L9.0528,9.315 L9.4538,8.915 C10.0728,8.296 10.9128,7.947 11.7898,7.947 C12.6658,7.947 13.5058,8.296 14.1258,8.915 L14.5268,9.315 L13.8418,10 L9.7368,10 Z" id="Fill-40" fill="#C8414B" mask="url(#mask-6)"></path>
            <path d="M11.7896,9.2363 C11.9786,9.2363 12.1316,9.3893 12.1316,9.5793 C12.1316,9.7673 11.9786,9.9213 11.7896,9.9213 C11.6006,9.9213 11.4476,9.7673 11.4476,9.5793 C11.4476,9.3893 11.6006,9.2363 11.7896,9.2363" id="Fill-41" fill="#FFD250" mask="url(#mask-6)"></path>
            <path d="M10.4209,9.2363 C10.6099,9.2363 10.7629,9.3893 10.7629,9.5793 C10.7629,9.7673 10.6099,9.9213 10.4209,9.9213 C10.2319,9.9213 10.0789,9.7673 10.0789,9.5793 C10.0789,9.3893 10.2319,9.2363 10.4209,9.2363" id="Fill-42" fill="#FFD250" mask="url(#mask-6)"></path>
            <path d="M13.1577,9.2363 C13.3467,9.2363 13.4997,9.3893 13.4997,9.5793 C13.4997,9.7673 13.3467,9.9213 13.1577,9.9213 C12.9687,9.9213 12.8157,9.7673 12.8157,9.5793 C12.8157,9.3893 12.9687,9.2363 13.1577,9.2363" id="Fill-43" fill="#FFD250" mask="url(#mask-6)"></path>
            <polygon id="Fill-44" fill="#C8414B" mask="url(#mask-6)" points="6 14 9 14 9 13 6 13"></polygon>
            <polygon id="Fill-45" fill="#C8414B" mask="url(#mask-6)" points="6 15.7197 8 15.0527 8 14.3857 6 15.0527"></polygon>
        </g>
    </g>
</svg>