<svg xmlns="http://www.w3.org/2000/svg" xmlns:xlink="http://www.w3.org/1999/xlink" width="36" height="36" viewBox="0 0 36 36">
  <defs>
    <linearGradient id="ic_status_diamond-c" x1="91.346%" x2="10.279%" y1="22.799%" y2="81.339%">
      <stop offset="0%" stop-color="#7456A7"/>
      <stop offset="47.205%" stop-color="#F8F8FF"/>
      <stop offset="100%" stop-color="#916BD5"/>
    </linearGradient>
    <circle id="ic_status_diamond-b" cx="18" cy="18" r="18"/>
    <filter id="ic_status_diamond-a" width="125%" height="125%" x="-12.5%" y="-12.5%" filterUnits="objectBoundingBox">
      <feOffset in="SourceAlpha" result="shadowOffsetOuter1"/>
      <feGaussianBlur in="shadowOffsetOuter1" result="shadowBlurOuter1" stdDeviation="1.5"/>
      <feComposite in="shadowBlurOuter1" in2="SourceAlpha" operator="out" result="shadowBlurOuter1"/>
      <feColorMatrix in="shadowBlurOuter1" values="0 0 0 0 0   0 0 0 0 0   0 0 0 0 0  0 0 0 0.5 0"/>
    </filter>
    <linearGradient id="ic_status_diamond-d" x1="91.346%" x2="11.408%" y1="22.799%" y2="80.523%">
      <stop offset="0%" stop-color="#2A0073"/>
      <stop offset="45.604%" stop-color="#0029FF"/>
      <stop offset="100%" stop-color="#2A0073"/>
    </linearGradient>
    <filter id="ic_status_diamond-e" width="143%" height="143%" x="-21.5%" y="-21.5%" filterUnits="objectBoundingBox">
      <feGaussianBlur in="SourceGraphic" stdDeviation="1.844"/>
    </filter>
    <linearGradient id="ic_status_diamond-f" x1="12.255%" x2="90.405%" y1="81.233%" y2="19.831%">
      <stop offset="0%" stop-color="#C587D5" stop-opacity=".921"/>
      <stop offset="100%" stop-color="#CCAEF1" stop-opacity=".457"/>
    </linearGradient>
    <linearGradient id="ic_status_diamond-g" x1="0%" y1="38.734%" y2="50%">
      <stop offset="0%" stop-color="#EBC4F5"/>
      <stop offset="100%" stop-color="#C292FE"/>
    </linearGradient>
    <linearGradient id="ic_status_diamond-h" x1="6.422%" y1="50%" y2="0%">
      <stop offset="0%" stop-color="#B5E1F5" stop-opacity=".049"/>
      <stop offset="100%" stop-color="#B5E1F5" stop-opacity=".547"/>
    </linearGradient>
    <linearGradient id="ic_status_diamond-i" x1="1.725%" y1="83.494%" y2="83.494%">
      <stop offset="0%" stop-color="#FFF" stop-opacity=".677"/>
      <stop offset="100%" stop-color="#FFF" stop-opacity=".194"/>
    </linearGradient>
    <linearGradient id="ic_status_diamond-j" x1="0%" x2="57.615%" y1="0%" y2="100%">
      <stop offset="0%" stop-color="#39009C" stop-opacity=".008"/>
      <stop offset="100%" stop-color="#39009C" stop-opacity=".579"/>
    </linearGradient>
    <linearGradient id="ic_status_diamond-k" x1="39.261%" y1="9.803%" y2="100%">
      <stop offset="0%" stop-color="#9467D7" stop-opacity=".242"/>
      <stop offset="100%" stop-color="#7532D7" stop-opacity=".76"/>
    </linearGradient>
    <linearGradient id="ic_status_diamond-l" x1="94.549%" x2="6.668%" y1="50%" y2="18.72%">
      <stop offset="0%" stop-color="#E5D3FF" stop-opacity=".242"/>
      <stop offset="100%" stop-color="#916EFF" stop-opacity=".356"/>
    </linearGradient>
    <linearGradient id="ic_status_diamond-m" x1="100%" x2="0%" y1="65.946%" y2="0%">
      <stop offset="0%" stop-color="#EBC4F5" stop-opacity=".346"/>
      <stop offset="100%" stop-color="#C292FE" stop-opacity=".254"/>
    </linearGradient>
    <linearGradient id="ic_status_diamond-n" x1="27.46%" x2="27.46%" y1="10.523%" y2="79.752%">
      <stop offset="0%" stop-color="#AD6BF4"/>
      <stop offset="100%" stop-color="#6D20BB" stop-opacity=".561"/>
    </linearGradient>
    <linearGradient id="ic_status_diamond-o" x1="50%" x2="50%" y1="2.152%" y2="93.956%">
      <stop offset="0%" stop-color="#4F2CCE" stop-opacity=".014"/>
      <stop offset="100%" stop-color="#4F2CCE" stop-opacity=".394"/>
    </linearGradient>
    <linearGradient id="ic_status_diamond-p" x1="87.155%" x2="24.342%" y1="8.625%" y2="100%">
      <stop offset="0%" stop-color="#5428AF" stop-opacity=".322"/>
      <stop offset="100%" stop-color="#3B09A1" stop-opacity=".694"/>
    </linearGradient>
  </defs>
  <g fill="none" fill-rule="evenodd">
    <use fill="#000" filter="url(#ic_status_diamond-a)" xlink:href="#ic_status_diamond-b"/>
    <use fill="url(#ic_status_diamond-c)" xlink:href="#ic_status_diamond-b"/>
    <circle cx="18" cy="18" r="16" fill="#19172F"/>
    <g>
      <polygon fill="url(#ic_status_diamond-d)" points="18 5.143 30.228 14.027 25.557 28.402 10.443 28.402 5.772 14.027" filter="url(#ic_status_diamond-e)" transform="rotate(-30 18 18)"/>
      <polygon points="18 5.143 30.228 14.027 25.557 28.402 10.443 28.402 5.772 14.027" transform="rotate(-30 18 18)"/>
      <polygon fill="url(#ic_status_diamond-f)" points="11.377 7.161 14.195 10.779 5.562 20.742"/>
      <polygon fill="url(#ic_status_diamond-g)" points="17.835 10.044 25.348 15.503 22.479 24.335 13.192 24.335 10.322 15.503" transform="rotate(-30 17.835 17.19)"/>
      <polygon fill="url(#ic_status_diamond-h)" points="12.64 8.397 26.52 8.466 14.254 10.98"/>
      <polygon fill="url(#ic_status_diamond-h)" points="21.471 27.951 17.397 25.714 29.652 23.256"/>
      <polygon fill="#753FD8" fill-opacity=".235" points="14.281 10.995 17.042 25.818 23.528 11.971 17.925 17.01"/>
      <polygon fill="url(#ic_status_diamond-i)" points="10.558 19.572 18.55 11.472 25.397 21.083"/>
      <polygon fill="url(#ic_status_diamond-j)" points="14.268 11 23.497 11.981 11.657 6.874"/>
      <polygon fill="url(#ic_status_diamond-k)" points="26.53 8.445 23.471 11.932 29.714 23.35"/>
      <polygon fill="url(#ic_status_diamond-l)" points="26.76 8.442 11.562 6.815 23.629 12.1"/>
      <polygon fill="url(#ic_status_diamond-m)" points="17.288 25.814 16.665 30.759 5.465 20.687"/>
      <polygon fill="url(#ic_status_diamond-m)" points="10.359 19.546 16.665 30.759 5.465 20.687" opacity=".415"/>
      <polygon fill="url(#ic_status_diamond-n)" points="23.511 12.005 25.424 21.126 29.758 23.338"/>
      <polygon fill="url(#ic_status_diamond-o)" points="26.568 8.398 29.735 23.285 25.371 21.138"/>
      <polygon fill="url(#ic_status_diamond-p)" points="10.456 19.546 5.568 20.723 13.092 9.38 14.26 10.94"/>
      <polygon fill="url(#ic_status_diamond-p)" points="17.436 25.799 10.845 25.583 10.505 19.574" opacity=".613"/>
    </g>
  </g>
</svg>
