<?xml version="1.0" encoding="iso-8859-1"?>
<!-- Generator: Adobe Illustrator 19.0.0, SVG Export Plug-In . SVG Version: 6.00 Build 0)  -->
<svg xmlns="http://www.w3.org/2000/svg" xmlns:xlink="http://www.w3.org/1999/xlink" version="1.1" id="Capa_1" x="0px" y="0px" viewBox="0 0 512 512" style="enable-background:new 0 0 512 512;" xml:space="preserve" width="512px" height="512px">
<g>
	<g>
		<path d="M436.108,418.946c4.218-1.98,6.714-7.489,6.714-14.289c0-11.449-7.747-15.408-18.163-15.408    c-14.548,0-18.852,8.866-18.852,14.978c0,3.616,0.775,4.821,5.767,4.821c4.132,0,5.337-1.722,5.337-4.304    c0-3.443,2.066-5.767,7.661-5.767c4.648,0,7.575,1.894,7.575,7.575c0,7.403-3.615,8.435-7.919,8.435    c-2.496,0-3.357,2.238-3.357,4.39c0,2.238,0.861,4.39,3.357,4.39c5.509,0,9.469,1.808,9.469,8.178v1.636    c0,6.542-2.755,9.296-9.211,9.296c-5.509,0-8.952-2.41-8.952-6.284c0-2.755-1.205-3.96-5.767-3.96    c-3.873,0-5.337,0.947-5.337,4.39c0,6.973,5.681,15.667,19.799,15.667c11.363,0,20.659-5.251,20.659-19.11v-1.636    C444.888,424.799,441.186,420.926,436.108,418.946z" fill="#66afe9"/>
	</g>
</g>
<g>
	<g>
		<path d="M104.315,442.618h-23.93v-2.066c0-8.952,27.287-14.978,27.287-33.571c0-10.933-9.297-17.474-19.282-17.474    c-9.555,0-18.507,6.026-18.507,15.839c0,4.648,2.152,6.026,5.079,6.026c3.702,0,5.854-2.066,5.854-4.132    c0-5.337,3.443-7.575,7.661-7.575c5.681,0,8.005,4.132,8.005,7.661c0,12.138-27.718,19.454-27.718,33.227v8.35    c0,2.151,2.926,3.528,4.906,3.528h30.645c1.894,0,3.529-2.41,3.529-4.993C107.844,444.857,106.209,442.618,104.315,442.618z" fill="#66afe9"/>
	</g>
</g>
<g>
	<g>
		<path d="M258.233,363.021c-0.947,0-1.722,0.344-2.325,0.861l-10.157,7.747c-1.377,0.86-2.152,2.496-2.152,4.046    c0,2.238,1.463,4.477,3.616,4.477c0.602,0,1.377-0.172,2.066-0.775l2.755-2.755v45.967c0,2.324,2.755,3.529,5.595,3.529    c2.755,0,5.595-1.205,5.595-3.529v-55.952C263.226,364.398,260.557,363.021,258.233,363.021z" fill="#66afe9"/>
	</g>
</g>
<g>
	<g>
		<path d="M498.344,330.691h-95.076c-4.15,0-7.514,3.364-7.514,7.514c0,4.15,3.364,7.514,7.514,7.514h93.705v150.63h-150.63v-150.63    h21.964c4.15,0,7.514-3.364,7.514-7.514c0-4.15-3.364-7.514-7.514-7.514h-21.964v-34.036c0-7.529-6.126-13.656-13.656-13.656    H314.58l-7.417-30.365c-1.158-4.746-5.379-8.061-10.265-8.061h-20.744v-63.456l3.156-2.325    c11.774-8.674,21.869-19.197,30.02-30.997c-0.003,0.004-0.006,0.008-0.008,0.013c0.139,0.154,0.266,0.313,0.41,0.464    c4.604,4.831,11.131,7.602,17.91,7.602c3.129,0,6.112-0.597,8.863-1.773c7.285-3.112,11.913-9.618,13.029-18.32    c0.528-4.116-2.38-7.881-6.496-8.41c-4.116-0.52-7.881,2.38-8.409,6.496c-0.637,4.966-3.1,6.019-4.028,6.415    c-0.863,0.369-1.886,0.564-2.959,0.564c-2.608,0-5.302-1.127-7.031-2.942c-2.578-2.705-1.949-5.683-0.968-7.706    c4.362-8.987,13.636-12.754,23.46-16.743c8.88-3.607,18.945-7.695,26.568-16.193c8.647-9.642,12.851-23.512,12.851-42.402V36.749    c0-3.183-1.241-6.173-3.497-8.427c-2.217-2.21-5.268-3.473-8.347-3.473c-0.028,0-0.057,0-0.086,0    c-9.326,0.023-18.054,4.622-23.347,12.299l-3.368,4.885c-2.116,3.069-5.605,4.902-9.332,4.902h-1.818V38.89    c5.149-1.22,8.995-5.844,8.995-11.36v-15.22c0-6.443-5.242-11.686-11.686-11.686H182.121c-6.443,0-11.686,5.242-11.686,11.686    v15.22c0,5.516,3.846,10.141,8.995,11.36v8.045h-1.974c-3.727,0-7.216-1.832-9.332-4.902l-3.368-4.884    c-5.293-7.678-14.021-12.276-23.309-12.3c-3.172,0.013-6.233,1.243-8.474,3.477c-2.253,2.249-3.494,5.24-3.494,8.423v18.113    c0,18.89,4.204,32.76,12.851,42.402c7.622,8.498,17.687,12.586,26.572,16.195c9.819,3.987,19.093,7.753,23.455,16.742    c0.981,2.021,1.61,4.999-0.969,7.706c-1.729,1.814-4.423,2.941-7.03,2.941c-1.073,0-2.096-0.195-2.96-0.564    c-0.927-0.396-3.39-1.449-4.027-6.415c-0.528-4.115-4.285-7.018-8.409-6.496c-4.116,0.529-7.024,4.294-6.496,8.41    c1.117,8.702,5.744,15.208,13.028,18.32c2.753,1.176,5.735,1.773,8.864,1.773c6.779,0,13.306-2.771,17.909-7.601    c0.175-0.184,0.332-0.377,0.499-0.565c8.161,11.835,18.276,22.389,30.079,31.085l3.156,2.325v63.456h-20.744    c-4.885,0-9.107,3.315-10.264,8.06L197.576,283h-18.263c-7.53,0-13.656,6.126-13.656,13.656v34.036H13.656    C6.126,330.691,0,336.818,0,344.347v153.373c0,7.53,6.126,13.656,13.656,13.656h484.688c7.53,0,13.656-6.126,13.656-13.656    V344.347C512,336.818,505.874,330.691,498.344,330.691z M165.658,496.349h-0.001H15.028v-150.63h150.63V496.349z M332.725,73.096    V61.961h1.818c8.669,0,16.782-4.261,21.703-11.398l3.369-4.886c1.887-2.737,4.7-4.644,7.877-5.418v14.602    c0,15.02-2.947,25.608-9.01,32.368c-5.305,5.914-12.946,9.018-21.04,12.305c-2.687,1.091-5.457,2.222-8.213,3.488    C331.523,93.292,332.725,83.256,332.725,73.096z M174.554,99.533c-8.09-3.286-15.731-6.39-21.035-12.304    c-6.063-6.76-9.011-17.348-9.011-32.368V40.255c3.167,0.771,5.987,2.681,7.877,5.423l3.368,4.885    c4.921,7.137,13.035,11.398,21.703,11.398h1.974v11.135c0.001,10.187,1.209,20.251,3.515,30.005    C180.13,101.801,177.298,100.648,174.554,99.533z M194.458,73.096V39.213h13.453c4.15,0,7.514-3.364,7.514-7.514    c0-4.15-3.364-7.514-7.514-7.514h-22.448V15.65h141.229v8.536h-83.213c-4.15,0-7.514,3.364-7.514,7.514    c0,4.15,3.364,7.514,7.514,7.514h74.218v33.882c0,36.788-17.682,71.778-47.301,93.598l-7.062,5.203    c-4.34,3.197-10.172,3.198-14.513,0l-7.063-5.203C212.141,144.874,194.458,109.885,194.458,73.096z M261.127,188.843v55.73H251.03    v-55.729c1.669,0.317,3.357,0.495,5.048,0.495C257.769,189.339,259.457,189.161,261.127,188.843z M218.761,259.602h74.634    L299.11,283h-86.065L218.761,259.602z M331.315,496.349h-150.63V298.028h150.63V496.349z" fill="#66afe9"/>
	</g>
</g>
<g>
	<g>
		<path d="M88.72,357.076h-0.832c-35.267,0-63.958,28.692-63.958,63.959c0,35.267,28.691,63.958,63.958,63.958h0.832    c35.267,0,63.958-28.691,63.958-63.958C152.678,385.768,123.987,357.076,88.72,357.076z M88.72,469.966h-0.832    c-26.981,0-48.931-21.95-48.931-48.931s21.95-48.932,48.931-48.932h0.832c26.981,0,48.931,21.95,48.931,48.932    C137.651,448.015,115.701,469.966,88.72,469.966z" fill="#66afe9"/>
	</g>
</g>
<g>
	<g>
		<path d="M257.326,333.229h-0.831c-35.267,0-63.959,28.691-63.959,63.958c0,35.267,28.692,63.959,63.959,63.959h0.831    c35.267,0,63.958-28.692,63.958-63.959C321.284,361.921,292.593,333.229,257.326,333.229z M257.326,446.12h-0.831    c-26.981,0-48.932-21.95-48.932-48.932c0-26.98,21.95-48.931,48.932-48.931h0.831c26.981,0,48.931,21.95,48.931,48.931    C306.256,424.169,284.306,446.12,257.326,446.12z" fill="#66afe9"/>
	</g>
</g>
<g>
	<g>
		<path d="M424.112,357.076h-0.832c-35.266,0-63.958,28.692-63.958,63.959c0,35.267,28.691,63.958,63.958,63.958h0.832    c35.267,0,63.958-28.691,63.958-63.958C488.07,385.768,459.379,357.076,424.112,357.076z M424.113,469.966h-0.832    c-26.981,0-48.931-21.95-48.931-48.931s21.95-48.932,48.931-48.932h0.832c26.981,0,48.931,21.95,48.931,48.932    C473.044,448.015,451.094,469.966,424.113,469.966z" fill="#66afe9"/>
	</g>
</g>
<g>
</g>
<g>
</g>
<g>
</g>
<g>
</g>
<g>
</g>
<g>
</g>
<g>
</g>
<g>
</g>
<g>
</g>
<g>
</g>
<g>
</g>
<g>
</g>
<g>
</g>
<g>
</g>
<g>
</g>
</svg>
